<mxfile host="app.diagrams.net" modified="2023-08-31T10:45:10.236Z" agent="Mozilla/5.0 (X11; Linux x86_64; rv:109.0) Gecko/20100101 Firefox/117.0" etag="vKxOx2hvqdKWLl5AG2X9" version="21.7.1" type="device">
  <diagram id="B3CHmN7edVssEqGOJgf8" name="Page-1">
    <mxGraphModel dx="631" dy="1496" grid="1" gridSize="10" guides="1" tooltips="1" connect="1" arrows="1" fold="1" page="0" pageScale="1" pageWidth="850" pageHeight="1100" math="0" shadow="0">
      <root>
        <mxCell id="0" />
        <mxCell id="1" parent="0" />
        <mxCell id="J6MpH6SQyc20g8hNUvU7-11" value="" style="ellipse;shape=cloud;whiteSpace=wrap;html=1;" parent="1" vertex="1">
          <mxGeometry x="479" y="30" width="120" height="80" as="geometry" />
        </mxCell>
        <mxCell id="J-3Tz7T3mcFdNNFz9trh-12" style="edgeStyle=orthogonalEdgeStyle;rounded=0;sketch=0;jumpStyle=line;jumpSize=6;orthogonalLoop=1;jettySize=auto;html=1;shadow=0;fontFamily=Helvetica;fontSize=8;endArrow=block;endFill=1;startSize=6;endSize=4;sourcePerimeterSpacing=5;targetPerimeterSpacing=0;strokeWidth=1;fillColor=#000000;" parent="1" source="J-3Tz7T3mcFdNNFz9trh-13" edge="1">
          <mxGeometry relative="1" as="geometry">
            <mxPoint x="480" y="70" as="targetPoint" />
          </mxGeometry>
        </mxCell>
        <mxCell id="J-3Tz7T3mcFdNNFz9trh-13" value="" style="rounded=1;whiteSpace=wrap;html=1;fontFamily=Helvetica;perimeterSpacing=5;dashed=1;" parent="1" vertex="1">
          <mxGeometry x="160" y="30" width="280" height="80" as="geometry" />
        </mxCell>
        <mxCell id="J-3Tz7T3mcFdNNFz9trh-14" value="Unstructured Text" style="text;html=1;strokeColor=none;fillColor=none;align=center;verticalAlign=middle;whiteSpace=wrap;rounded=0;" parent="1" vertex="1">
          <mxGeometry x="60" y="92" width="60" height="30" as="geometry" />
        </mxCell>
        <mxCell id="J-3Tz7T3mcFdNNFz9trh-15" value="&lt;div&gt;Place name identification&lt;/div&gt;" style="rounded=1;whiteSpace=wrap;html=1;fontFamily=Helvetica;" parent="1" vertex="1">
          <mxGeometry x="170" y="40" width="120" height="60" as="geometry" />
        </mxCell>
        <mxCell id="J-3Tz7T3mcFdNNFz9trh-16" value="Disambiguation" style="rounded=1;whiteSpace=wrap;html=1;fontFamily=Helvetica;" parent="1" vertex="1">
          <mxGeometry x="310" y="40" width="120" height="60" as="geometry" />
        </mxCell>
        <mxCell id="J-3Tz7T3mcFdNNFz9trh-17" style="edgeStyle=orthogonalEdgeStyle;rounded=0;orthogonalLoop=1;jettySize=auto;html=1;fontFamily=Helvetica;targetPerimeterSpacing=0;sketch=0;shadow=0;fillColor=#000000;strokeWidth=1;sourcePerimeterSpacing=5;endArrow=block;endFill=1;endSize=4;startSize=6;jumpStyle=line;jumpSize=6;" parent="1" edge="1">
          <mxGeometry relative="1" as="geometry">
            <mxPoint x="120" y="70" as="sourcePoint" />
            <mxPoint x="150" y="70" as="targetPoint" />
            <Array as="points">
              <mxPoint x="120" y="70" />
              <mxPoint x="120" y="70" />
            </Array>
          </mxGeometry>
        </mxCell>
        <mxCell id="J-3Tz7T3mcFdNNFz9trh-18" value="" style="sketch=0;outlineConnect=0;fontColor=#232F3E;gradientColor=none;fillColor=#000000;strokeColor=none;dashed=0;verticalLabelPosition=bottom;verticalAlign=top;align=center;html=1;fontSize=12;fontStyle=0;aspect=fixed;pointerEvents=1;shape=mxgraph.aws4.data_set;rounded=1;fontFamily=Helvetica;" parent="1" vertex="1">
          <mxGeometry x="69" y="34" width="42" height="52" as="geometry" />
        </mxCell>
        <mxCell id="J-3Tz7T3mcFdNNFz9trh-19" value="Geoparsing" style="text;html=1;strokeColor=none;fillColor=none;align=center;verticalAlign=middle;whiteSpace=wrap;rounded=0;fontFamily=Helvetica;" parent="1" vertex="1">
          <mxGeometry x="270" y="110" width="60" height="30" as="geometry" />
        </mxCell>
        <mxCell id="-irMWZ7jGF5JL1QjNR2Z-84" style="edgeStyle=orthogonalEdgeStyle;shape=connector;rounded=0;sketch=0;jumpStyle=line;jumpSize=6;orthogonalLoop=1;jettySize=auto;html=1;shadow=0;labelBackgroundColor=default;strokeColor=default;strokeWidth=1;fontFamily=Helvetica;fontSize=11;fontColor=default;endArrow=block;endFill=1;startSize=6;endSize=4;sourcePerimeterSpacing=5;targetPerimeterSpacing=0;fillColor=#000000;dashed=1;" parent="1" source="-irMWZ7jGF5JL1QjNR2Z-81" edge="1">
          <mxGeometry relative="1" as="geometry">
            <mxPoint x="370" y="20" as="targetPoint" />
          </mxGeometry>
        </mxCell>
        <mxCell id="-irMWZ7jGF5JL1QjNR2Z-81" value="&lt;div style=&quot;font-size: 10px;&quot; align=&quot;center&quot;&gt;&lt;font style=&quot;font-size: 10px;&quot;&gt;Gazetteer&lt;/font&gt;&lt;/div&gt;" style="html=1;whiteSpace=wrap;align=center;" parent="1" vertex="1">
          <mxGeometry x="325" y="-30" width="90" height="20" as="geometry" />
        </mxCell>
        <mxCell id="-irMWZ7jGF5JL1QjNR2Z-85" style="edgeStyle=orthogonalEdgeStyle;shape=connector;rounded=0;sketch=0;jumpStyle=line;jumpSize=6;orthogonalLoop=1;jettySize=auto;html=1;shadow=0;labelBackgroundColor=default;strokeColor=default;strokeWidth=1;fontFamily=Helvetica;fontSize=11;fontColor=default;endArrow=block;endFill=1;startSize=6;endSize=4;sourcePerimeterSpacing=5;targetPerimeterSpacing=0;fillColor=#000000;dashed=1;" parent="1" source="-irMWZ7jGF5JL1QjNR2Z-86" edge="1">
          <mxGeometry relative="1" as="geometry">
            <mxPoint x="230" y="20" as="targetPoint" />
          </mxGeometry>
        </mxCell>
        <mxCell id="-irMWZ7jGF5JL1QjNR2Z-86" value="&lt;font style=&quot;font-size: 10px;&quot;&gt;NER Model&lt;/font&gt;" style="html=1;whiteSpace=wrap;align=center;" parent="1" vertex="1">
          <mxGeometry x="185" y="-30" width="90" height="20" as="geometry" />
        </mxCell>
        <mxCell id="J6MpH6SQyc20g8hNUvU7-7" value="" style="shape=image;html=1;verticalAlign=top;verticalLabelPosition=bottom;labelBackgroundColor=#ffffff;imageAspect=0;aspect=fixed;image=https://cdn0.iconfinder.com/data/icons/phosphor-fill-vol-3/256/map-pin-fill-128.png" parent="1" vertex="1">
          <mxGeometry x="558" y="51" width="18" height="18" as="geometry" />
        </mxCell>
        <mxCell id="J6MpH6SQyc20g8hNUvU7-8" value="" style="shape=image;html=1;verticalAlign=top;verticalLabelPosition=bottom;labelBackgroundColor=#ffffff;imageAspect=0;aspect=fixed;image=https://cdn0.iconfinder.com/data/icons/phosphor-fill-vol-3/256/map-pin-fill-128.png" parent="1" vertex="1">
          <mxGeometry x="522" y="64" width="18" height="18" as="geometry" />
        </mxCell>
        <mxCell id="J6MpH6SQyc20g8hNUvU7-9" value="" style="shape=image;html=1;verticalAlign=top;verticalLabelPosition=bottom;labelBackgroundColor=#ffffff;imageAspect=0;aspect=fixed;image=https://cdn0.iconfinder.com/data/icons/phosphor-fill-vol-3/256/map-pin-fill-128.png" parent="1" vertex="1">
          <mxGeometry x="550" y="82" width="18" height="18" as="geometry" />
        </mxCell>
        <mxCell id="J6MpH6SQyc20g8hNUvU7-10" value="" style="shape=image;html=1;verticalAlign=top;verticalLabelPosition=bottom;labelBackgroundColor=#ffffff;imageAspect=0;aspect=fixed;image=https://cdn0.iconfinder.com/data/icons/phosphor-fill-vol-3/256/map-pin-fill-128.png" parent="1" vertex="1">
          <mxGeometry x="520" y="40" width="18" height="18" as="geometry" />
        </mxCell>
      </root>
    </mxGraphModel>
  </diagram>
</mxfile>
